<?xml version="1.0" encoding="UTF-8" standalone="no"?>
<!DOCTYPE svg PUBLIC "-//W3C//DTD SVG 1.1//EN"
 "http://www.w3.org/Graphics/SVG/1.1/DTD/svg11.dtd">
<!-- Generated by graphviz version 2.36.0 (20140111.2315)
 -->
<!-- Title: G Pages: 1 -->
<svg width="264pt" height="483pt"
 viewBox="0.00 0.00 264.00 483.00" xmlns="http://www.w3.org/2000/svg" xmlns:xlink="http://www.w3.org/1999/xlink">
<g id="graph0" class="graph" transform="scale(1 1) rotate(0) translate(4 479)">
<title>G</title>
<polygon fill="white" stroke="none" points="-4,4 -4,-479 260,-479 260,4 -4,4"/>
<text text-anchor="middle" x="128" y="-459.8" font-family="Times,serif" font-size="14.00">my_bad_linear_net</text>
<!-- n1 -->
<g id="node1" class="node"><title>n1</title>
<g id="a_node1"><a xlink:title="[...space/Tempshop/Lua/src/hjp.torch.package.nngraph/mlp.lua]:13_">
<ellipse fill="red" stroke="black" cx="128" cy="-160" rx="128.54" ry="48.1667"/>
<text text-anchor="middle" x="128" y="-178.8" font-family="Times,serif" font-size="14.00">linear_module (1)</text>
<text text-anchor="start" x="45" y="-163.8" font-family="Times,serif" font-size="14.00">input = {Tensor[11]}</text>
<text text-anchor="start" x="45" y="-148.8" font-family="Times,serif" font-size="14.00">module = nn.Linear(10 &#45;&gt; 10)</text>
<text text-anchor="middle" x="128" y="-133.8" font-family="Times,serif" font-size="14.00">reverseMap = {}</text>
</a>
</g>
</g>
<!-- n2 -->
<g id="node2" class="node"><title>n2</title>
<g id="a_node2"><a xlink:title="[[C]]:&#45;1_">
<ellipse fill="none" stroke="black" cx="128" cy="-38" rx="77.1743" ry="37.4533"/>
<text text-anchor="middle" x="128" y="-49.3" font-family="Times,serif" font-size="14.00">Node2</text>
<text text-anchor="start" x="81" y="-34.3" font-family="Times,serif" font-size="14.00">input = {}</text>
<text text-anchor="middle" x="128" y="-19.3" font-family="Times,serif" font-size="14.00">reverseMap = {}</text>
</a>
</g>
</g>
<!-- n1&#45;&gt;n2 -->
<g id="edge1" class="edge"><title>n1&#45;&gt;n2</title>
<path fill="none" stroke="black" d="M128,-111.573C128,-103.096 128,-94.269 128,-85.8099"/>
<polygon fill="black" stroke="black" points="131.5,-85.7224 128,-75.7224 124.5,-85.7224 131.5,-85.7224"/>
</g>
<!-- n3 -->
<g id="node3" class="node"><title>n3</title>
<g id="a_node3"><a xlink:title="[...space/Tempshop/Lua/src/hjp.torch.package.nngraph/mlp.lua]:12_">
<ellipse fill="none" stroke="black" cx="128" cy="-292" rx="94.1301" ry="48.1667"/>
<text text-anchor="middle" x="128" y="-310.8" font-family="Times,serif" font-size="14.00">input_x (3)</text>
<text text-anchor="start" x="69" y="-295.8" font-family="Times,serif" font-size="14.00">input = {Tensor[11]}</text>
<text text-anchor="start" x="69" y="-280.8" font-family="Times,serif" font-size="14.00">module = nn.Identity</text>
<text text-anchor="middle" x="128" y="-265.8" font-family="Times,serif" font-size="14.00">reverseMap = {}</text>
</a>
</g>
</g>
<!-- n3&#45;&gt;n1 -->
<g id="edge2" class="edge"><title>n3&#45;&gt;n1</title>
<path fill="none" stroke="black" d="M128,-243.699C128,-235.544 128,-226.987 128,-218.597"/>
<polygon fill="black" stroke="black" points="131.5,-218.483 128,-208.483 124.5,-218.483 131.5,-218.483"/>
</g>
<!-- n4 -->
<g id="node4" class="node"><title>n4</title>
<g id="a_node4"><a xlink:title="[[C]]:&#45;1_">
<ellipse fill="none" stroke="black" cx="128" cy="-414" rx="94.1301" ry="37.4533"/>
<text text-anchor="middle" x="128" y="-425.3" font-family="Times,serif" font-size="14.00">Node4</text>
<text text-anchor="start" x="69" y="-410.3" font-family="Times,serif" font-size="14.00">input = {Tensor[11]}</text>
<text text-anchor="middle" x="128" y="-395.3" font-family="Times,serif" font-size="14.00">reverseMap = {}</text>
</a>
</g>
</g>
<!-- n4&#45;&gt;n3 -->
<g id="edge3" class="edge"><title>n4&#45;&gt;n3</title>
<path fill="none" stroke="black" d="M128,-376.344C128,-368.219 128,-359.418 128,-350.683"/>
<polygon fill="black" stroke="black" points="131.5,-350.503 128,-340.503 124.5,-350.503 131.5,-350.503"/>
</g>
</g>
</svg>
